<?xml version="1.0" encoding="utf-8"?>
<!-- Generator: Adobe Illustrator 25.0.1, SVG Export Plug-In . SVG Version: 6.00 Build 0)  -->
<svg version="1.0" id="katman_1" xmlns="http://www.w3.org/2000/svg" xmlns:xlink="http://www.w3.org/1999/xlink" x="0px" y="0px"
	 viewBox="0 0 560 400" style="enable-background:new 0 0 560 400;" xml:space="preserve">
<style type="text/css">
	.st0{fill:#ED1B2D;}
	.st1{fill:#006BB6;}
</style>
<g transform="matrix(1.2 0 0 1.2 100 145.096)">
	<path class="st0" d="M97.5,56.8c0-19.2,15.6-34.7,34.7-34.7c19.2,0,34.7,15.6,34.7,34.7c0,19.2-15.6,34.7-34.7,34.7
		C113.1,91.5,97.5,76,97.5,56.8 M132.2,72.7c8.8,0,15.9-7.1,15.9-15.9c0-8.8-7.1-15.9-15.9-15.9c-8.8,0-15.9,7.1-15.9,15.9
		C116.3,65.6,123.4,72.7,132.2,72.7z"/>
	<path class="st1" d="M0,0h29l16.4,55h0.2L62.4,0h28.2v89.6H71.9V26.2h-0.2L53.8,89.6H36.6L18.9,26.2h-0.2v63.4H0V0z M252.3,17.7
		H271V0h-18.7L252.3,17.7z M252.3,89.6H271V24h-18.7L252.3,89.6z M281.3,89.6H300V0h-18.7V89.6z M174.8,89.6h18.7v-5.8
		c4.8,5.3,10.9,7.3,17.9,7.3c18.8,0,33.1-15.8,33.1-34.2c0-18.4-14.1-34.4-33.1-34.4c-6.8,0-12.7,2.1-17.9,6.6V0h-18.7V89.6z
		 M193.7,56.8c0-8.8,7.1-15.9,15.9-15.9s15.9,7.1,15.9,15.9c0,8.8-7.1,15.9-15.9,15.9S193.7,65.6,193.7,56.8z"/>
</g>
</svg>
